<mxfile host="app.diagrams.net" modified="2024-04-22T21:46:15.711Z" agent="Mozilla/5.0 (Windows NT 10.0; Win64; x64) AppleWebKit/537.36 (KHTML, like Gecko) Chrome/124.0.0.0 Safari/537.36" etag="7of4brPuof-_csV4jXhZ" version="24.2.8" type="device">
  <diagram name="Страница — 1" id="b3E-5eComp_bfbBXA-ZH">
    <mxGraphModel dx="3939" dy="1475" grid="1" gridSize="10" guides="1" tooltips="1" connect="1" arrows="1" fold="1" page="1" pageScale="1" pageWidth="3300" pageHeight="2339" math="0" shadow="0">
      <root>
        <mxCell id="0" />
        <mxCell id="1" parent="0" />
        <mxCell id="_DgsHCR7agp-GBdOqNit-13" value="&lt;font style=&quot;font-size: 16px;&quot;&gt;Availability Zone&lt;/font&gt;" style="fillColor=none;strokeColor=#147EBA;dashed=1;verticalAlign=top;fontStyle=0;fontColor=#147EBA;whiteSpace=wrap;html=1;fontFamily=Comic Sans MS;fontSize=16;" vertex="1" parent="1">
          <mxGeometry x="560" y="850" width="650" height="850" as="geometry" />
        </mxCell>
        <mxCell id="_DgsHCR7agp-GBdOqNit-5" value="AWS Cloud" style="sketch=0;outlineConnect=0;html=1;whiteSpace=wrap;fontSize=16;fontStyle=0;shape=mxgraph.aws4.group;grIcon=mxgraph.aws4.group_aws_cloud;strokeColor=#666666;fillColor=#f5f5f5;verticalAlign=top;align=left;spacingLeft=30;dashed=0;fontColor=#333333;fillStyle=auto;gradientColor=none;perimeterSpacing=1;spacingTop=-2;fontFamily=Comic Sans MS;autosize=0;" vertex="1" parent="1">
          <mxGeometry x="460" y="445" width="2590" height="1535" as="geometry" />
        </mxCell>
        <mxCell id="_DgsHCR7agp-GBdOqNit-6" value="Region" style="points=[[0,0],[0.25,0],[0.5,0],[0.75,0],[1,0],[1,0.25],[1,0.5],[1,0.75],[1,1],[0.75,1],[0.5,1],[0.25,1],[0,1],[0,0.75],[0,0.5],[0,0.25]];outlineConnect=0;gradientColor=none;html=1;whiteSpace=wrap;fontSize=16;fontStyle=0;container=1;pointerEvents=0;collapsible=0;recursiveResize=0;shape=mxgraph.aws4.group;grIcon=mxgraph.aws4.group_region;strokeColor=#00A4A6;fillColor=none;verticalAlign=top;align=left;spacingLeft=30;fontColor=#147EBA;dashed=1;fontFamily=Comic Sans MS;spacingTop=-2;" vertex="1" parent="1">
          <mxGeometry x="490" y="485" width="2470" height="1325" as="geometry" />
        </mxCell>
        <mxCell id="_DgsHCR7agp-GBdOqNit-7" value="VPC" style="points=[[0,0],[0.25,0],[0.5,0],[0.75,0],[1,0],[1,0.25],[1,0.5],[1,0.75],[1,1],[0.75,1],[0.5,1],[0.25,1],[0,1],[0,0.75],[0,0.5],[0,0.25]];outlineConnect=0;gradientColor=none;html=1;whiteSpace=wrap;fontSize=16;fontStyle=0;container=1;pointerEvents=0;collapsible=0;recursiveResize=0;shape=mxgraph.aws4.group;grIcon=mxgraph.aws4.group_vpc2;strokeColor=#8C4FFF;fillColor=none;verticalAlign=top;align=left;spacingLeft=30;fontColor=#AAB7B8;dashed=0;fontFamily=Comic Sans MS;" vertex="1" parent="_DgsHCR7agp-GBdOqNit-6">
          <mxGeometry x="40" y="55" width="1080" height="1220" as="geometry" />
        </mxCell>
        <mxCell id="_DgsHCR7agp-GBdOqNit-8" value="Security group" style="fillColor=none;strokeColor=#DD3522;verticalAlign=top;fontStyle=0;fontColor=#DD3522;whiteSpace=wrap;html=1;fontFamily=Comic Sans MS;fontSize=16;" vertex="1" parent="_DgsHCR7agp-GBdOqNit-7">
          <mxGeometry x="30" y="640" width="530" height="520" as="geometry" />
        </mxCell>
        <mxCell id="_DgsHCR7agp-GBdOqNit-9" value="Public subnet" style="points=[[0,0],[0.25,0],[0.5,0],[0.75,0],[1,0],[1,0.25],[1,0.5],[1,0.75],[1,1],[0.75,1],[0.5,1],[0.25,1],[0,1],[0,0.75],[0,0.5],[0,0.25]];outlineConnect=0;html=1;whiteSpace=wrap;fontSize=16;fontStyle=0;container=1;pointerEvents=0;collapsible=0;recursiveResize=0;shape=mxgraph.aws4.group;grIcon=mxgraph.aws4.group_security_group;grStroke=0;strokeColor=#3A5431;fillColor=#767D75;verticalAlign=top;align=left;spacingLeft=30;fontColor=#ffffff;dashed=0;fontFamily=Comic Sans MS;spacingTop=-2;fillStyle=auto;" vertex="1" parent="_DgsHCR7agp-GBdOqNit-7">
          <mxGeometry x="90" y="720" width="400" height="390" as="geometry" />
        </mxCell>
        <mxCell id="_DgsHCR7agp-GBdOqNit-28" value="&lt;font color=&quot;#ffffff&quot; style=&quot;font-size: 16px;&quot;&gt;Web-service Server&lt;/font&gt;" style="sketch=0;points=[[0,0,0],[0.25,0,0],[0.5,0,0],[0.75,0,0],[1,0,0],[0,1,0],[0.25,1,0],[0.5,1,0],[0.75,1,0],[1,1,0],[0,0.25,0],[0,0.5,0],[0,0.75,0],[1,0.25,0],[1,0.5,0],[1,0.75,0]];outlineConnect=0;fontColor=#232F3E;fillColor=#ED7100;strokeColor=#ffffff;dashed=0;verticalLabelPosition=bottom;verticalAlign=top;align=center;html=1;fontSize=16;fontStyle=0;aspect=fixed;shape=mxgraph.aws4.resourceIcon;resIcon=mxgraph.aws4.ec2;fontFamily=Comic Sans MS;" vertex="1" parent="_DgsHCR7agp-GBdOqNit-9">
          <mxGeometry x="137.5" y="130" width="135" height="135" as="geometry" />
        </mxCell>
        <mxCell id="_DgsHCR7agp-GBdOqNit-29" value="Amazon&lt;div style=&quot;font-size: 16px;&quot;&gt;Cloudwatch&lt;/div&gt;" style="sketch=0;outlineConnect=0;fontColor=#232F3E;gradientColor=none;strokeColor=#232F3E;fillColor=#CC2264;dashed=0;verticalLabelPosition=bottom;verticalAlign=top;align=center;html=1;fontSize=16;fontStyle=0;aspect=fixed;shape=mxgraph.aws4.resourceIcon;resIcon=mxgraph.aws4.instance_with_cloudwatch;fontFamily=Comic Sans MS;" vertex="1" parent="_DgsHCR7agp-GBdOqNit-6">
          <mxGeometry x="1690" y="535" width="135" height="135" as="geometry" />
        </mxCell>
        <mxCell id="_DgsHCR7agp-GBdOqNit-30" value="" style="edgeStyle=segmentEdgeStyle;endArrow=classic;html=1;curved=0;rounded=1;endSize=8;startSize=8;strokeWidth=2;fontFamily=Comic Sans MS;fontSize=16;" edge="1" parent="_DgsHCR7agp-GBdOqNit-6" source="_DgsHCR7agp-GBdOqNit-26" target="_DgsHCR7agp-GBdOqNit-29">
          <mxGeometry width="50" height="50" relative="1" as="geometry">
            <mxPoint x="980" y="513" as="sourcePoint" />
            <mxPoint x="773" y="400" as="targetPoint" />
            <Array as="points">
              <mxPoint x="1758" y="970" />
            </Array>
          </mxGeometry>
        </mxCell>
        <mxCell id="_DgsHCR7agp-GBdOqNit-26" value="Flowlogs" style="sketch=0;outlineConnect=0;fontColor=#232F3E;gradientColor=none;fillColor=#8C4FFF;strokeColor=none;dashed=0;verticalLabelPosition=bottom;verticalAlign=top;align=center;html=1;fontSize=16;fontStyle=0;aspect=fixed;pointerEvents=1;shape=mxgraph.aws4.flow_logs;fontFamily=Comic Sans MS;" vertex="1" parent="_DgsHCR7agp-GBdOqNit-6">
          <mxGeometry x="1060" y="905" width="135" height="135" as="geometry" />
        </mxCell>
        <mxCell id="_DgsHCR7agp-GBdOqNit-14" value="" style="sketch=0;outlineConnect=0;fontColor=#232F3E;gradientColor=none;fillColor=#8C4FFF;strokeColor=none;dashed=0;verticalLabelPosition=bottom;verticalAlign=top;align=center;html=1;fontSize=16;fontStyle=0;aspect=fixed;pointerEvents=1;shape=mxgraph.aws4.router;fontFamily=Comic Sans MS;" vertex="1" parent="1">
          <mxGeometry x="1160" y="788" width="131" height="131" as="geometry" />
        </mxCell>
        <mxCell id="_DgsHCR7agp-GBdOqNit-16" value="" style="edgeStyle=segmentEdgeStyle;endArrow=classic;html=1;curved=0;rounded=1;endSize=8;startSize=8;strokeWidth=2;fontFamily=Comic Sans MS;fontSize=16;" edge="1" parent="1" source="_DgsHCR7agp-GBdOqNit-10" target="_DgsHCR7agp-GBdOqNit-14">
          <mxGeometry width="50" height="50" relative="1" as="geometry">
            <mxPoint x="960" y="815" as="sourcePoint" />
            <mxPoint x="1010" y="765" as="targetPoint" />
          </mxGeometry>
        </mxCell>
        <mxCell id="_DgsHCR7agp-GBdOqNit-17" value="Router" style="edgeLabel;html=1;align=center;verticalAlign=middle;resizable=0;points=[];fontFamily=Comic Sans MS;fontSize=16;" vertex="1" connectable="0" parent="_DgsHCR7agp-GBdOqNit-16">
          <mxGeometry x="0.8879" y="1" relative="1" as="geometry">
            <mxPoint x="1" y="16" as="offset" />
          </mxGeometry>
        </mxCell>
        <mxCell id="_DgsHCR7agp-GBdOqNit-37" value="" style="endArrow=classic;html=1;rounded=0;strokeWidth=2;fontFamily=Comic Sans MS;fontSize=16;" edge="1" parent="1" source="_DgsHCR7agp-GBdOqNit-36" target="_DgsHCR7agp-GBdOqNit-32">
          <mxGeometry width="50" height="50" relative="1" as="geometry">
            <mxPoint x="1020" y="955" as="sourcePoint" />
            <mxPoint x="1070" y="905" as="targetPoint" />
          </mxGeometry>
        </mxCell>
        <mxCell id="_DgsHCR7agp-GBdOqNit-32" value="Flow Logs Role" style="sketch=0;outlineConnect=0;fontColor=#232F3E;gradientColor=none;fillColor=#DD344C;strokeColor=none;dashed=0;verticalLabelPosition=bottom;verticalAlign=top;align=center;html=1;fontSize=16;fontStyle=0;aspect=fixed;pointerEvents=1;shape=mxgraph.aws4.role;fontFamily=Comic Sans MS;" vertex="1" parent="1">
          <mxGeometry x="762.96" y="1836.8" width="124.09" height="70" as="geometry" />
        </mxCell>
        <mxCell id="_DgsHCR7agp-GBdOqNit-35" value="" style="endArrow=classic;html=1;rounded=0;entryX=0.5;entryY=1;entryDx=0;entryDy=0;entryPerimeter=0;strokeWidth=2;fontFamily=Comic Sans MS;fontSize=16;" edge="1" parent="1" source="_DgsHCR7agp-GBdOqNit-32" target="_DgsHCR7agp-GBdOqNit-28">
          <mxGeometry width="50" height="50" relative="1" as="geometry">
            <mxPoint x="690" y="955" as="sourcePoint" />
            <mxPoint x="740" y="905" as="targetPoint" />
          </mxGeometry>
        </mxCell>
        <mxCell id="_DgsHCR7agp-GBdOqNit-36" value="Permissions" style="sketch=0;outlineConnect=0;fontColor=#232F3E;gradientColor=none;fillColor=#DD344C;strokeColor=none;dashed=0;verticalLabelPosition=bottom;verticalAlign=top;align=center;html=1;fontSize=16;fontStyle=0;aspect=fixed;pointerEvents=1;shape=mxgraph.aws4.permissions;fontFamily=Comic Sans MS;" vertex="1" parent="1">
          <mxGeometry x="1040" y="1838.6" width="54.2" height="68.2" as="geometry" />
        </mxCell>
        <mxCell id="_DgsHCR7agp-GBdOqNit-10" value="" style="sketch=0;outlineConnect=0;fontColor=#232F3E;gradientColor=none;fillColor=#8C4FFF;strokeColor=none;dashed=0;verticalLabelPosition=bottom;verticalAlign=top;align=center;html=1;fontSize=16;fontStyle=0;aspect=fixed;pointerEvents=1;shape=mxgraph.aws4.route_table;fontFamily=Comic Sans MS;" vertex="1" parent="1">
          <mxGeometry x="758.29" y="969" width="133.43" height="130" as="geometry" />
        </mxCell>
        <mxCell id="_DgsHCR7agp-GBdOqNit-11" value="" style="endArrow=classic;html=1;rounded=0;exitX=0.5;exitY=0;exitDx=0;exitDy=0;fontFamily=Comic Sans MS;fontSize=16;" edge="1" parent="1" source="_DgsHCR7agp-GBdOqNit-8" target="_DgsHCR7agp-GBdOqNit-10">
          <mxGeometry width="50" height="50" relative="1" as="geometry">
            <mxPoint x="970" y="695" as="sourcePoint" />
            <mxPoint x="1020" y="645" as="targetPoint" />
          </mxGeometry>
        </mxCell>
        <mxCell id="_DgsHCR7agp-GBdOqNit-12" value="Route Table" style="edgeLabel;html=1;align=center;verticalAlign=middle;resizable=0;points=[];fontFamily=Comic Sans MS;fontSize=16;" vertex="1" connectable="0" parent="_DgsHCR7agp-GBdOqNit-11">
          <mxGeometry x="-0.0386" relative="1" as="geometry">
            <mxPoint as="offset" />
          </mxGeometry>
        </mxCell>
        <mxCell id="_DgsHCR7agp-GBdOqNit-40" value="" style="sketch=0;outlineConnect=0;fontColor=#232F3E;gradientColor=none;strokeColor=#6A3DC5;fillColor=none;dashed=0;verticalLabelPosition=bottom;verticalAlign=top;align=center;html=1;fontSize=16;fontStyle=0;aspect=fixed;shape=mxgraph.aws4.resourceIcon;resIcon=mxgraph.aws4.internet_gateway;fontFamily=Comic Sans MS;" vertex="1" parent="1">
          <mxGeometry x="890" y="492" width="90" height="90" as="geometry" />
        </mxCell>
        <mxCell id="_DgsHCR7agp-GBdOqNit-38" value="AWS Management&lt;div style=&quot;font-size: 16px;&quot;&gt;Console&lt;/div&gt;" style="sketch=0;points=[[0,0,0],[0.25,0,0],[0.5,0,0],[0.75,0,0],[1,0,0],[0,1,0],[0.25,1,0],[0.5,1,0],[0.75,1,0],[1,1,0],[0,0.25,0],[0,0.5,0],[0,0.75,0],[1,0.25,0],[1,0.5,0],[1,0.75,0]];points=[[0,0,0],[0.25,0,0],[0.5,0,0],[0.75,0,0],[1,0,0],[0,1,0],[0.25,1,0],[0.5,1,0],[0.75,1,0],[1,1,0],[0,0.25,0],[0,0.5,0],[0,0.75,0],[1,0.25,0],[1,0.5,0],[1,0.75,0]];outlineConnect=0;fontColor=#232F3E;fillColor=#cc2264;strokeColor=#ffffff;dashed=0;verticalLabelPosition=bottom;verticalAlign=top;align=center;html=1;fontSize=16;fontStyle=0;aspect=fixed;shape=mxgraph.aws4.resourceIcon;resIcon=mxgraph.aws4.management_console;fontFamily=Comic Sans MS;" vertex="1" parent="1">
          <mxGeometry x="190" y="1392.5" width="130" height="130" as="geometry" />
        </mxCell>
        <mxCell id="_DgsHCR7agp-GBdOqNit-41" value="" style="edgeStyle=segmentEdgeStyle;endArrow=classic;html=1;curved=0;rounded=1;endSize=8;startSize=8;strokeWidth=2;jumpStyle=none;fontFamily=Comic Sans MS;fontSize=16;" edge="1" parent="1" source="_DgsHCR7agp-GBdOqNit-14" target="_DgsHCR7agp-GBdOqNit-40">
          <mxGeometry width="50" height="50" relative="1" as="geometry">
            <mxPoint x="670" y="793" as="sourcePoint" />
            <mxPoint x="1005" y="640" as="targetPoint" />
            <Array as="points">
              <mxPoint x="1226" y="720" />
              <mxPoint x="935" y="720" />
            </Array>
          </mxGeometry>
        </mxCell>
        <mxCell id="_DgsHCR7agp-GBdOqNit-43" value="" style="edgeStyle=segmentEdgeStyle;endArrow=classic;html=1;curved=0;rounded=1;endSize=8;startSize=8;strokeWidth=2;jumpStyle=none;exitX=0.5;exitY=0;exitDx=0;exitDy=0;exitPerimeter=0;fontFamily=Comic Sans MS;fontSize=16;" edge="1" parent="1" source="_DgsHCR7agp-GBdOqNit-38" target="_DgsHCR7agp-GBdOqNit-5">
          <mxGeometry width="50" height="50" relative="1" as="geometry">
            <mxPoint x="260" y="1370" as="sourcePoint" />
            <mxPoint x="110" y="980" as="targetPoint" />
            <Array as="points">
              <mxPoint x="255" y="1280" />
            </Array>
          </mxGeometry>
        </mxCell>
        <mxCell id="_DgsHCR7agp-GBdOqNit-44" value="Track resources" style="edgeLabel;html=1;align=center;verticalAlign=middle;resizable=0;points=[];fontFamily=Comic Sans MS;fontSize=16;" vertex="1" connectable="0" parent="_DgsHCR7agp-GBdOqNit-43">
          <mxGeometry x="0.2394" relative="1" as="geometry">
            <mxPoint x="21" y="-12" as="offset" />
          </mxGeometry>
        </mxCell>
        <mxCell id="_DgsHCR7agp-GBdOqNit-46" value="" style="shape=image;verticalLabelPosition=bottom;labelBackgroundColor=default;verticalAlign=top;aspect=fixed;imageAspect=0;image=data:image/png,iVBORw0KGgoAAAANSUhEUgAABAAAAAIACAIAAACTr4nuAABoHUlEQVR42u3dd3xc5YHv/znTm3rvxbZkFduSbVmWe29gYzAQIJTAJuRuQrJJ7m93c7PLLi+ye7O5aYRNllATQggtwRgwtnHvarZsq9iS1Xtv0+ecmfP7Y264WcDGGhVL48/7D16vODqjo+eUeb5PFWRZVgAAAAC4NSgpAgAAAIAAAAAAAIAAAAAAAIAAAAAAAIAAAAAAAIAAAAAAAIAAAAAAAIAAAAAAAIAAAAAAAIAAAAAAAIAAAAAAAIAAAAAAABAAAAAAABAAAAAAABAAAAAAABAAAAAAABAAAAAAABAAAAAAABAAAAAAABAAAAAAABAAAAAAABAAAAAAABAAAAAAAAIAAAAAAAIAAAAAAAIAAAAAAAIAAAAAAAIAAAAAAAIAAAAAAAIAAAAAAAIAAAAAAAIAAAAAAAIAAAAAAAIAAAAAQAAAAAAAQAAAAAAAQAAAAAAAQAAAAAAAQAAAAAAAQAAAAAAAQAAAAAAAQAAAAAAAQAAAAAAAQAAAAAAAQAAAAAAACAAAAAAACAAAAAAACAAAAAAACAAAAAAACAAAAAAACAAAAAAACAAAAAAACAAAAAAACAAAAAAACAAAAAAACAAAAAAACAAAAAAAAQAAAAAAAQAAAAAAAQAAAAAAAQAAAAAAAQAAAAAAAQAAAAAAAQAAAAAAAQAAAAAAAQAAAAAAAQAAAAAAAQAAAAAgAAAAAAAgAAAAAAAgAAAAAAAgAAAAAAAgAAAAAAAIqADQ1SH19Xi8XgoWAAAAmI7UE/tx9bXuw/vsuXm6tZuMoWFKlVqgiAEAAICADQCSpOjrlT74k/tCmXPLDlPWfF1omEqlopwBAACAaWFS5gB4vYqWJvHVF0Zef3m0otRpGfXKMkUNAAAA3Hzqyftop0MuP+tornfnFeiXLDdkzNUq6QoAAAAAAjUAKBQKWVb09XqO7LfX17qXrjQUrTKGhbPuEAAAABCgAcDH45GbG8S+Hk/1RdfqDaYFi3Q6PZODAQAAgAANAAqFQpYVVou36oKr8aqYNU+7YZs5bZbGYCQGAAAAAIEYAHy8XoXV4i0746y64F69wbBynTE2Xq3VEQMAAACAQAwAn3DYvR9/aKutdq9cb5yXr4uOUTM/GAAAAAjYAKBQKLxeRVOD2NNtqb7oWlykX7BIHxTM/GAAAAAgQAOAj93mPV/qbG4QKytcazYas+bpuCQAAABAwAYAhUIhy4qBfk/JKUdTg7h8tXHlekNomEpJZwAAAAAQkAHAx+NRdLVL779jKTvjWLvZmF+gDwlTqlTMDwYAAAAm0vRqaXe75ZYm8Q8vjT7/y+Hys86RYS9XCAAAAJhA6ml4TpIk11xytTaJRasMhSsMabM0LBUKAAAABGwA8LFavEf2265ecS9eaigo0scmqJkYAAAAAARsAFAoFB6PorlB7O32XK50FSw3LF2hN5kJAQAAAECABgAfu81bU+lqbRYvnXfedqc5fbZGpRYExgQBAAAAARkAFAqFLCsso94LZc76WvfSFYbVG4wxcWqdnhAAAAAABGIA8PF6FaPD3oN7bZUVrpXrjXmLdXEJarWaGAAAAAAEYgDwkWVFV4f03puW6guuotWGvEW6kDAVFxIAAAAIzADg43bL1Zdc7a1S3WX3stWGjCytRkNXAAAAABCgAcBnZNhz5pij6ap7wSL9yvXGuAQ1k4MBAACAgA0ACoVCkuS2Fqm321Z1wbV8raFolTEoWMmOAQAAAEBgBgAfl0tuaRLb26TzJa5td5pnZWjMQUp6AwAAAIDADAAKhUKWFZIoX65ytTS5lyw3FK00pM7SGk2EAAAAACAQA8An7Db5xCH71cvuxUWGRYX65DSNilWCAAAAgEANAAqFwutVdLRJfb3Wy5WuolWGolUGk5lpAQAAAECABgAft0uuu+zu6ZKuVLtXbzRm5+pUaq44AAAACAABbWTYW37WUX/FvWCRfu1mY3ySWqtlYgAAAAAIAIHL41EM9HuOHbRdPO9cvcFYuMIQE6dmYgAAAAAIAIHM61UM9Hl2v2mpuuhav8U0N0cbFqFiqVAAAAAQAAKZLCvqatxdHVLeIv3iIv3cHK3RxPxgAAAAEAACmmXEe+a4/eoV94JF+lXrDYkpGjYPBgAAAAEgkHk8iu5OaWjAdqXatWKdYe1Gk07PeCAAAAAQAAKayyW3NIq93dKFMteGraaseVqDUUlvAAAAAAgAgcxhl6svuhrq3HmL9Ks2GNPnaEwmpYL+AAAAABAAApjTIRefctRdcS9bbViyzJCcplapCAEAAAAgAAS0wX7Pvvds9bXupSsM8xfpo6LZLwAAAAAEgIDm8ci11e6ONqn6knv5GkPOAp2e+cEAAAAgAAQwWVZYRrznS5yNV93Z83Rb7zAnJKuZHAwAAAACQCDzeOSBPs+ZE47LVa41m4wr1hhDQpVqDb0BAAAAIAAEcAyQ5P5ez7tvWM4VO9dtNuUs0IVHqlRMDQAAAAABIIB5PYqmevGPnSO5ebqlKww5C3QmM0OCAAAAQAAIaA67XHbG2VQvLirUL11pSJ+jZWIAAAAACAABrr/Xc3i/vaFOXLJMX7jCEB7JeCAAAAAQAAKaJMoNde6uDuniedfaTcZ5+TqDUSkwPRgAAAAEgEAlywqb1Xu50tV41Z2Vq9u205ycrjEYCAEAAAAgAAQur1fhsMvnS51Xr7jXbjYVFOnjEtU6HTEAAAAABICAZhn1frTbWnXBVbTKkLdYFx3LxmEAAAAgAAQ0SZIbr7p7uqSaS67FRfqCIoPBSFcAAAAACAABzWb1Xih3tjSKtdXudVtM6XM0TA4GAAAAASCQybJicMBz5rijoc5duMKwfI0xIorNgwEAAEAACGiSJHe2S+//yVp6xrl+i3HBIn1ElIqJAQAAALiJqI1OLllWSKLc3iL+4aWRV/5r+Hypc3TES7EAAADgZqEHYIp4PIqqC672VqlwuX5xkSFtlkanZ2YAAAAApho9AFNqeNBzeL/99ZdHjh+yWy10BQAAAIAAEOgkUW5uECtKnSPDBAAAAAAQAG6RGCDJXo9MOQAAAIAAAAAAAIAAAAAAAIAAAAAAAIAAAAAAAIAAMHP0dns62iRJYqIwpoIkeVtaLF1ddooCAICAx0Zg01R7q/jhn60JyeotO8zRsSqNhl3DMClE0dvb63j//ebq6qH7758dF2ekTAAAIADgJvB4FMNDnvpad9UF1+btpvwCQ0SkUk0MwMSRJHlgwFlS0vvWWw1dXfaoKD09TgAAEABwM8myQpYV/b2et39vuVjuWr7WkD1fFxamEhi3hXHfWkNDrosXBw4daj93rt/l8lAmAAAQADCNiKJcddHV1irOy9MvXqqfl6/T6ugKgJ/cbs+lS4PHj3eVlPT09TkpEAAACACYpkaGvGeO2+tr3fV1+lXrjXEJXDuMWXe3/aOPWk+f7m5psXrYixoAAAIApjmvV9HdKR3aa7t62b1inbGgSG8yMx4IN8Rmk86e7dm3r/XKlWG7XaJAAAAgAGDGcDrlusvu1max+KRjw1ZTZo7WHKQUGBOEzyPLCqtVrK4e3LOnpapq0G6XvF4a/gEAIABgBtbqHHa5+qLr6mX3okL9uq2mlDSNwUgIwH/jcEgNDaN797YeO9bpdDLTFwAAEABmPrdbPnvS0XBVXLXBmF+gi09Uq9XEACgkSW5vtxYX9+7d29LebqNAAAAAASCg9HZLH7xjuXzJtWipfuESfXikihFBtyxZVgwOOs+e7Tl1qruycpDh/gAAgAAQmFwuufqSq61FrLnkXrHOkLdIr+La3nokST5/vm/fvrbKysHBQafMaH8AAEAACGyjI97zZY7mRnf1Rdem203RsWolqwTdGrxeuafH8e67TadPd/f2OljiEwAAEABumYqgR9Hf6zn6sb36omvFOuOSZfqISJVaw5CggCVJ3r4+5+nT3R991NbebhVFL2UCAAAIALdepVCUO9ulP/1h9Fyxc80mY84CXWQUEwMCjSwr+vocFy70793bWl09RKs/AAAgANzqvF5FQ527vVXML9CvXGeck6U1GAgBAcLp9FRVDR482H7qVDczfQEAAAEA/4/LKZeccrQ2iQsL9QVFhpQ0DfODZzSPR25qspw82XXiRFdLi1Vmqi8AACAA4FNkWdHZLg302a5UuwuW6petNoSGqyiWmWh42HX0aOexY11Xr444HDT8AwAAAgCuzeWSG2rdXe1SRZlz8w7z/HydRiswMWCmRDi323P+fP+f/tRYXz9qsYg0/AMAAAIAbqgeabN6a2vcrc3D+QX6DVuNCckavYEYMK0vmdMptbRY9+5tPX6802aTvF6q/gAAgACAMdYp7Tbv6WP2K1Wu5WsMi5YaEpPVWh0hYNpxuz0tLdazZ3v272/r7rbT6A8AAAgAGJeBfs/e3baqi+6ilYbFRfrIaCYGTCO9vY5Tp7qPHeu8cmWY1f0BAAABABPD45Ebr7q7O6WrV9xFqw3z8nQ6PV0BN5nT6blwof/gwfaysj6LRaRAAAAAAQATzG7zlhc7WprEygW6VeuNabM1SiWlchN4vXJzs2X//raSkt72dhvD/QEAAAEAk1f1VPR0SYP9nsuVriXLDKs2GCOiVCrGBE0Vj0ceGHAePtxx8GB7Z6fd5fJQJgAAgACASSeKcleH9OFu67lSx7ad5nl5uuBQFb0Bkxy95NFRd3l535tvNrS2WiXJy2RfAABAAMCU8khye4v02+dG8hbrV64zzMrQBgUrWSp0MoyOumtrh48c6Tx2rNPppNUfAAAQAHDziG65/Kyjqd69cIl+0VL97EytVksImDBut7e2dvj06e6TJ7u6uhxs7AUAAAgAuPlkWdHf6zmy315b7S5Ypl+x1hgRxbSACdDf7/z447YTJ7qbmkbdbpb4BAAABABMJ5IktzSJ/b2eK9XuNRuNC5foNXQF+EsUvWVlve+/31JTM8QSnwAAgACA6ctm81ZfcrU1i2Vnneu3GNPmaHU6gYkBN0iWFS6Xp75+5IMPWs6d6x8acrHEJwAAIABg2tdivYqRYW/pacflStfSlYYVa40JSWqtjhDwBVwuT2ur9eDB9sOHO4aH3VT9AQAAAQAzKgbIitER78cf2qouutZvMc1fqIuOVbNU6OfyeuXeXkdxce9HH7VevTpCgQAAAAIAZrDONumd10YvV+oKlhlyFuhCQgkB/83IiLuiov/kya6Skl6bTaJAAAAAAQAzntMpnyt1NtWLuXm65WuNc+Zq1GpGBCkkyXv58vDBg+3l5X09PQ7G/AAAAAIAAofsVQz0e84cd9RdcS9eqt+y3Rx8a3cFDA+733+/+ciRjq4uh9vN3l4AAIAAgEAkinJXu3TgA1vVBdf6raa8xXpzkFJ1K+0Z4PHIFotYXt737rtNTU2jbOsLAAAIAAh8bpfcVC+++vxI8UnH2s3GzCxdcKgy4JcKlWV5eNhdUzP04YetFRX9LhdVfwAAQADArUR0y1UXXC2N4qJCfdFqw5xMbQBvHCaK3suXhw8daj91qntoyMXVBwAABADcoiyj3mMH7Y314tKVhoVL9PGJ6gDrCpBluaPDfvp097FjnbW1wzITfQEAAAEAaG0S+3qky5WuwhWGhUv0QcEBMj/YYhGLi3uOHu2srBy0WkUuNAAAIAAA/5fDLldfdLU2ixfPuTbeZprpS4VKkremZui995orKweHhlweDy3/AACAAAD8d16vYmTIe77EcaXKtXSlYdNtpvAolXamTQxwu719fY4PPmg5cKDNYhGp+gMAAAIAcD0ej8Iy6j30ka3yvGvtFmPeYn10jEqtmQExQBS93d328vK+PXtaWlutMuP9AQAAAQC4QbKs6O6S/vxHS+V5V9Eqw7yF+tCw6btUqCwrhoZc5eV9hw61V1YOsro/AAAgAAD+cLvkqouuthbxcpV76UpD7gKdavrdjB6PfPHiwMGD7efO9fX1OblqAACAAACMy8iw98xxe3ODe/FSw7LVhrjEaXRDdnXZDx5sP3Giq6nJ4vUy5gcAABAAgIng9Sra26T+PmvVRdeKtYaCIkNQsFJQ3sTzkUdHxVOnug4caG9sHHU4JAb8AwAAAgAwoWSF0yE31LnbWsTiU87N202Z2Vpz0FRPDJBlhcXirqoa/POfm2pqhlwuL5N9AQAAAQCYxPq3yylfqXI1XnUXrTKsWm9MTFYbTVPUF2C3S01NlgMH2g4ebGemLwAAIADcKI1GoVIJFCvGw+2STx6219W4i1YZFhXq45PUk7pxmCh6W1osxcW9R450tLRYGe4PAAAIAGMwO1O7dpPx5BFHfy8jp+E/r1fR1SF99J71SpV7YaGucIUxNGxSugKGhlzHj3cdP95ZWzvicEiUPAAAIACMTWy8evN205ws7YlD9rKzDkmkhOE/p0OuqXS1tYhXqsV1m405C3TKiUsBXq9cUdG/Z09LdfXg4KCL0gYAAAQAPxlNypz5usRkdX6B/sh+W8NVURKZSwn/WUa950sdLY3u/AL9mk3GuAS1WiUoxjEmSJK8HR22Dz9sPX26u7fX4fFwdwIAAALA+AiCIjRMVbjCkJmtLT7lOHvC0dkuuV1Us+Anr0fR1+M5vN9+8Zxr5TpjwTJ9dKzKj4kBoujt7rafPNm9f39bV5ddkryULQAAIABMGKVSER6p2rbTvKhQf2if7WK5q6dL8lLjgr88ktzTJf35j6MVZc71W43Z83URkaobP7y/33nuXN8HH7RevjzETF8AAEAAmEQxcep7HwzOynGdOeG4XOUaHSYEwH+yrGioc3e1S4uW6otWGWZnag3GL+gKsNnE6uqhkye7jx3rtFqZmAIAAAgAk0+jFfIL9MnpmsoKZ/FJZ/0Vt9tNEyz8Z7d7zxy3N151F602rlpnCIu4ZldAb69j3762o0c72tttDPcHgCkmy7LVau3s7Ozo6Ojv7x8YGLBYLE6n0+PxuN1uQRB0Op1KpdJqtXq9PiQkJCIiIiwsLDw8PCYmJjQ0VKlUUobATA0ACoVCUCoio1Qr1hozsnQVZc6De22D/Wy3BP95PIqONul8iSNnvvY6AaCnx3H6dHdLi5USA4Ap4/V6r1y5cubMmfLy8ubm5uHh4dHRUbvd7nA4XC6XJEler9fj8QiCoFKplEqlSqVSq9V6vd7wF2azOTY2dtasWRkZGVlZWZmZmWazmYIFZlgA8NFohIQkdWS0KTdPd+gjW/lZp8PuZWIA/CZJCo/n+j/gZbIvAEwBWZbdbndXV9fRo0d3795dVVU1PDxss9ncbrd/H6hSqfR6vS8VRERE5OTkLF68eNu2bRkZGYLArqPAzAkAPjqdkJKmefCrIQVFhiMHbFcvu21WYgAAADOV2+2uq6vbu3fva6+9dvXqVV8b/zg/0+Px2Gw2m82mUCg6OjqqqqreeecdSZK+973vqVQqyhyYYQFAoVAIgkKvFxYs0qXN1pQXO8rOOK9ecbucDNEGAGCG6e/v379//y9+8Yvz589P0q+QZdnj8Xg8nvj4eJr/gZkaAD4RHKJcu8k0N0d35rij9LSju1Ni1zAAAGaK1tbWl1566YUXXujp6ZmCX5ecnEwAAGZ8AFAoFIKgiE9U377LPDtTU3bGWVHutIwwHggAgOnuypUrv/zlL99+++3BwcEp+HUGgyE6OpoAAARCAPDR64X5C/Up6Zp5+brD+231V0RJoi8AmJFeeuml9957TxRvuV0X1Gr1li1bvvWtb3EP4FbQ2tr6zDPPvP7661brFK20FhsbazAYKHkgcAKAQqFQKhVh4aqCIv3cXO2FMtdHe6z9PR5RJAYAM0xdXd3hw4edTuet9odrNJqUlBRuANwKBgYGnn322d///vcOh2PKfmlKSopWq6XwgYAKAD4qtRAaplq90Zg9X3twr+18qWuw30NvAAAA04QkSfv37//Nb34zlbV/XwDQ6XSUPxCAAcBHEBTRsep7Hgqev9B95rijptI1NOiRmRoAAMDN1tbW9pOf/MS3QOdUSkpK0mg0lD8QsAHAR6sV5uXrktM0VRecxSed1ZdcopuuAAAAbqa33377ypUrU/97ExMTGQIEBH4A8AkJVS5bZUydpT1f6jx1xN7ZLnHlAAC4Kdrb2999912/9/f1v8qiVsfFxdEDANwqAUChUAhKRUKSOiLKlJGlPXnEXn7WabMyHggAgKl26NChpqYmecp37QkLCwsJCWENUOAWCgA+er2QkaVNTtUsW2X4eK+tttpts3rZOAwAgKlhtVr37ds3Nav+f0pcXFxQUBCXALjlAoBCoRAEhcEoZM/XzZmrLSt2Hv7I1tYsOhyEAAAAJl1VVdXVq1c9Hs/U/+r4+Hiz2cwlAG7FAPAJjVYoWmlIn605ecRxsdzZ0S5J7BgAAMBkqq6u7urqmqhPUyqVJpNJq9VqtVqv1ytJksvlcjqdkvQ5k/1iYmJMJhOXALilA4BCoRAERWy8esc95pwF2rIzzvMlzqFBDyOCAACYDJIkXb16dWBgYJyfo9FoMjIyFixYMGfOnKioKL1er9PpPB6PKIpOp9NqtVqt1pGRkYGBgd7e3u7u7o6OjpGREQIAQAD4f3Q6IXueLiFJk7tAd+KI/WK582b0TAIAEOCGh4c7OztFURzPhyQmJj7wwANbt26dNWtWTEzMZ5f1lGVZFEW73W6xWIaHh4eHh/v7+zs6OhYsWEAAAAgA/01IqDJ/iT45TZOVqz28z97bLXlZJQgAgInT29vb09Mznk9ISkr6p3/6p3vvvTc0NPRa6/kIguAbFBQaGpqUlPRJJBAEgTVAAQLApymViqgY1YatpgWL9CcO28vOOAf6PUwMAABgQgwODo5n/I9er//Sl770la98RafTjelAXySg/AECwLX/JI0Ql6C+58HggiLD0Y9tlRWuwX4mBgAAMF4Wi2V0dNTvwyMjI7/+9a+PtfYPgABwo5RKRfocTUJSSHmx48wxx9Va0WFnSBAAAP7zTc/1+/C0tLT09HSKESAATC6dXihaZUyfrS0vcZaedrQ1i8wPBgDAPy6Xy+Vy+XesIAg5OTlKpZJiBAgAk06pVMQlqjdFmubmaM8VO08fdwwPEgIAABgzj8fzuSv036DExETKECAATB2dXpidqU1IUuct1u3/wHbpnEuSZCYGAJP1xOl0ZrN5ktbr8Hg8DodjPA+w0WhUqVSTcW4ajYbxzQhgkiSNJwCEhIRQhgABYEoJgsJoUmbm6JJSNeeKnUc/tne0iU4HMQCYeP/rf/2v733ve5P0dJWWln75y18eHBz0+xM++OCDvLy8yQs/3AAIVLIse8exxrZer6cMAQLAzYkBJrNy5XpjTp7uzDFHebGjrUUS3YQAYCIZjUaj0ThJHx4UFHSt5cNvUHBwcFhY2Dg/BLg1A8B4Dp+knjcABIAbjQERkaptO01Z87TFJx3nS519PUwMAAAAAAEgoKnUwuxMbXyiOiNLe/qYo/qSy+WkKwAAAAAEgIBmNCkXFxmS0zRVF10nDtlbGkUvGwYAAACAABDAlEpFbLw6IlKVPU9Xctpx4pB9aMDDjgEAAAAgAAQyjVaIT1Rv32VeuET/0XvWmouu0REvvQEAAAAIJGzI95lIpBZS0jSPfSP0wa+GLFikDwpWslIIAAAAAqe6SxF8Lp1OWLLckD5He67Eea7E0VAriiLzgwEAAEAACFyCoIiKUW3YZpybqy0/6zh11DHQx7QAAOMiy7LVah0YGLDb7W632+Vyud1uURS1f+HbRDkyMtJgMNwKBTIyMtLd3Z2enj5J+0b7x+l0dnV1BQcHR0RETPbv8nq9vjtBkiRBELRarVKp1Gg0arWarSqmniiKQ0NDg4ODDofD93i63W7faGCdTqfRaPR6vVarDQsLCw8P1+v1t8I1crvd9fX1er0+PT19+p+tw+EYHh62Wq1Wq9VisbhcLlEUFQpFZGRkXFxcTEyMVqudyvPxeDxWq3V0dNT3X5vNJgiCwWAIDg6OiYkJDw+/WbcQAeCLCkgtpKZromNUGVm6Yx/bLp5zudk1DMBY6hMtLS3V1dV1dXVtbW2dnZ1DQ0MOh0MURc9feL1epVKpUqnUarVKpdJqtSaTKSIiIi4uLikpKTc3d/78+dHR0YFULF6vt729/eDBgwcOHNDr9c8880x4ePh0ODGbzXb8+PH333+/t7f3W9/61tq1a8f5gZIkDQ0N9fb2dnd39/7FwMCA0+m02+2+KuYnd4IgCCqVShAEpVKp1WpDQ0NDQ0PDwsIiIyMTEhKSk5NTUlKioqIIBhMYyIeGhurq6mpqaq5evdrZ2dnX12ez2RwOhyRJvosiSZLvh1UqlS+bKZVKvV5vNBrDw8Pj4+NTU1OzsrKys7NjYmLU6oCqVtnt9qNHj+7evbu2tvahhx56/PHHp9sZWq3W+vr6hoYG39u1o6Ojr6/P4XD4GlbcbrckSb78ZjQazWZzUlLS6tWrt27dmpKSMklvtv7+/qtXrzY1NbW2tra3t3d1dY2MjPiS5CdpRKPRaLVas9kcFxdXWFi4bNmyefPmTfE+2QSAG2I0KXPzdCnpmtpq16F99qZ6t8s5zv0QAQQmSZIcDsfQ0FBZWdn+/fvPnTvX39/vdDqdTqfvO+kG1xZQqVS+LwmDwWA2m9PS0oqKijZu3JiZmRkUFDQZTY+7d+8+e/bsmJY+iImJ+eY3v3njuz6Lomi1WktLS994441Tp04NDg5aLJaUlBSXy3WtQyoqKvbu3Ts8PHzjZxUUFHTXXXfNmzfvBn/e4/HY7faGhoa9e/fu2bOnpaVlZGQkJCTknnvuufFvfd8XvCiKNputubm5pqbGV6dsbW212+2SJImi+Ml/JUmSZdnj8ciyfK3vEl8Y8NFoNL6bQafTxcbG5uXlLVy4MD8/PyUlxWQyjf9m8Hg8ly9frqqq+sKfLCsr83uNPFmWn3/++YMHD/p3eHBw8Fe+8pWlS5eOs37mdDodDsfly5cPHDhw9uzZlpYWm83me0J9sfzGv93/+iHV6/WxsbELFy7cvHlzQUFBUFCQwWCY8DzQ0NDw+9///urVqzd+iFKpvOuuu+68884bvEm8Xq/NZmtsbPzwww/37t3b0NAwPDzs8XhWrlwpy/Lnfojb7T5+/PiZM2du/Kwefvjh1NTUMd23oii6XC6n09nT01NRUXHhwoXq6urGxkabzfZJV6rv+bperVet3r9//7PPPrtz5877778/IyNDp9P5fT/7fq/D4Whubi4pKamoqLhy5UpPT4/T6fyk++iTBHKtW2jv3r1BQUE5OTn33Xffli1boqOjp2bDbALAjT9CipBQZcEyw9xcXelpx/GD9o52SaQ3AMBfOJ3O9vb2srKy999//+TJk319fb56nn+tBb7WR6fTOTo62tPT09jYePTo0Z/85CdZWVnbt2/fvn17WlpaWFiYUjlhazkcO3bsN7/5zZiqd5GRkQ899NAXBgBZlh0OR3t7++nTp1977bWSkhKn0/nJl2JXV5fb7b7WsbW1tS+//HJbW9uNn5XBYEhNTc3Nzf3C6oXH4+nu7r5w4cKbb7554MCBoaGhT+p/IyMjw8PD16rx+OpJdrvd92Pt7e0lJSUXL16sra1ta2vz/XWyLPv+63f1whcVPvXvzc3NpaWlgiBoNJrs7Oxt27atX79+1qxZ0dHRfo9tcLvd77333tNPP30jtcPxLJJdWlpaVlbm37FJSUnbtm3z+1eLotjd3V1TU3Pw4MGPP/64vr7eN7ZnPI15f/2QKhSK1tbW8vLyl19+OTY2dtWqVVu3bl20aFFSUtKNJ+QvNDAwcOjQoeLi4jEdFR0dvXnzZpPJ9IV/Tl9fX1VV1WuvvbZv376/fhwUCsXw8LDdbv/cDxFF8eDBgz//+c9v/JRCQ0O/8Y1vfOHAP1mWbTbb4OBgf39/dXX18ePHi4uLm5qafC0pflw+SZKGh4eHh4fr6up27979zW9+c9euXbGxsTceRTwej8ViGRgYaG9vP3v2rK/e39PT46voj/WF7/F4RkdHR0dHOzs7jx49unz58u9///srVqz4wotFAJhqgqAIDlFu2GbKzNYeOWCruuDu7ZG8TA0Abm1ut7uuru7YsWO7d+8+ffr0ddqz/eZrMPZ4PL6mr9/+9rd33nnn9u3bFy1aFBYWNiG/wveFOqbqnW9wS2xs7HV+xm63V1ZWnjx58r333jt37pzT6fzsDwwPD1+rR95XjR7TWVmt1u7ubrfbfZ22PVEUW1tbz507t3v37r1791oslk/9gMvlGh4e9k3P+Ox3dm1t7aVLl+rq6iorK6uqqurr66/f7jjhd4KvKnPu3Llz587953/+57p162677baioqLZs2f7N5vC6/X6BidM9sn7XeH2tbL796c1NDScPn36vffeO3HixNDQ0KReGo/H09ra+oc//OGdd97Jz8+/66671qxZM4EDPHxPxJgO6e3tHR4evk6dUpKk9vb28+fPv//++++///7nFtHIyMjo6Oi1PuST2/IGHTly5Gtf+9p17lVRFJubm69cuXLx4sXS0tJz5851d3dP4NLsHo/nypUr//iP/1hVVfUP//APXzi9QZZli8XS0NBQV1dXUVFx9uzZc+fO2Wy2Cbx5RFE8fvx4Y2PjP/7jP957772RkZEEgOkoKVVz78PBuQvcJWcc1RdcoyPsFwDcimRZ7u7u3rdv31tvvXXixInP1m4n6Ze2tbX9+te//vjjj++888777rsvJydnanqNP3smzc3N8+fPv9ZXbE1NzZ49ez744IOKiorr1C+7u7sXLFgwgSfW1dVltVo/NwB4vd7Ozs6PP/74o48+Onbs2ODg4LWqpL6ZoJ8NAG63++233/7Zz35mtVqnw004PDz87rvvHj58eNmyZffdd9+OHTtCQ0MD71kzGAx+zIzv6+s7cuTI22+/ffDgwc/GvEnlcrmKi4vLy8uXLFlyzz333HbbbbNmzZrALrsxFcLw8HBCQsK13mC+x+H48eO9vb3XehxGRkYsFktcXNyEnJJvbGRycvJnz6e3t/fChQsVFRXFxcWlpaXd3d2TN+Tabre/8sorXq/36aefvlZDhtfrbW5uLisrKykpKS8vr6ysHNOIxLG+UVtbW//t3/5tdHT0b/7mb6KioggA0/NlpMxfok+ZpalZ4Dp9zFFb4/ZIjAgCbiGiKJaWlj7//PNHjhzp6uqa4o0DfS1Yzz77bHFx8be//e077rhj6ueG+gLA5/57e3v77t27P/jgg7Nnz35hO1lXV9fEnpgvAHx2DR+73b5379533nnn9OnTXV1d169YDA4O2u32kJCQT/27Uqk0GAzTpPb/1/Wzffv2VVVVlZeXf+tb35ozZ06APW5Go3FMAcDXQ/LKK68cOHCgvb19PCOXxkOSpLNnz165cuXw4cMPP/zw1q1bzWbzTQkAn/13t9u9f//+119//cyZMx0dHdd/HHzr2EzUKQ0NDZWXl/91APB6vY2NjQcOHDh58mRlZWVTU5PD4Zia1/gf//jH6Ojo73//+5+6NC6Xq6am5sCBA6dOnaqsrGxvb5+al3xXV9evf/3r0NDQhx56aPLGAhEAxkWpVERGqZatNsyZqy0+5Tj4oc0ySlcAcEuQJGnfvn1PPfVUdXX1dYawTzabzXbs2LGurq6hoaGHHnpoihchkWW5qanpU/9otVrffffd11577eLFiwMDAzfylelr5JvAANPZ2fmp1CHL8sWLF5955pljx451dHTcyIgdXwD4nC9OtXrWrFnT87Zsa2t7+eWXW1tbv//97xcWFgbSekFjCgAul+v999//yU9+UllZOTX9ctd/TAYHB33xrKam5jvf+c5nU+UUBwBZli9duuSbk93U1HQj6Wh0dHQCu1BEUTx27Nhdd93l+5+XL19+/fXXfSdzgy+NCWS321999dW0tLTHHnvM98i43e4TJ0688847JSUlvlUBpnjhl46Ojl/+8peZmZmrV6+epF4jAsBEFKJaiEtQb9tpzlukO7Lffr7MabN4PUwMAAKX3W7/r//6r5/97Gc9PT03fUUwWZZra2v/+Z//ua2t7YknnpjK9TS9Xu8nC5L4ZvoWFxf/6Ec/Kisrs1gsN/4t3t7ePrEn1t7e/kllxeVy1dfXv/jii3v27Ono6Ljxke6+FSE/++8qlSo5OdlsNk+3ToBPbs6PPvqoo6PjySef3Lp167TaYGE8TCbTDQYAi8Xy85///Nlnnx0eHp7iquR1eDye5uZmXyb56U9/mpKSMmXxrLe3t7+/35exRVFsamp69dVX33rrrfb29hufsDQ0NDQyMjKBDSinTp1qbW1taWn5wx/+cOjQoa6urqlp8v/cV2hnZ+err76anZ2dmZlZWlr63HPPnT592mKx3KzGHVmW6+rqfvnLX2ZkZHzu2C0CwDSi0wlps7UPP64pXGE4esBWW+MeHfGyVCgQeAYGBp5//vmf/vSnkzeb0L8vsGeeeUYUxb/7u7+b7Nljf/17m5ubfYsn1tfXv/nmm88//3x/f/9YP6ejo2NiT6yrq8u3dmFHR8eHH3743HPPVVdXjzWqDQwMXGvwUlBQUEpKSnV19fS8RUVRLC8vf/LJJ9Vq9caNGwMjA5hMphtZTqenp+dnP/vZr371q5tVm7w+m822Z8+e0dHRn/70p1M2dcftdnd2djocjtHR0f379//nf/5nRUXFWB+H4eFh32JHE/XqqK+vv/feey9fvmyxWG56M4rX6y0pKXnqqadkWT59+vTndv1N/Sl98MEHO3fufPDBByeja5cAMME0WsG3Y0DZGWfxSXt9nchSoUAgGRoaevnll5999tnpU/v/1LlFR0c/+uijUzbOeHR09MKFC1VVVb/97W9LSkr8azCb8DkALperqanp0KFDv//97/fs2ePfYh2+DZs/9/8yGo3JycnTNgD4XLp06Uc/+pFvm6oAGAt0I0OAurq6fvnLX7744ovTs/bvI0nS8ePHf/CDHzz99NN5eXlTMy24qanp2LFjH3744WuvveZfz5XNZhsZGfHtWjghp2SxWEpKSqbPdXG73R9//PG0ulW8Xu+rr756xx13TNRSbwSASRcUrFy72Tg7U3PmhKOi1NnVIdEVAAQAp9P50UcfvfDCCz09PdPzDLu6un71q1/NnTt33bp1U9O4ODQ09OSTT168eLG7u9vvD+nr6/vcBTfH449//OPg4GBNTY3fjYsjIyNWq/VzJyf4AsD0v2PPnDnz4osv/vu///sELkV/s3zhKkAjIyOvv/76q6++OnmLtExgXfPw4cMhISFPPfXU1EzXPnbsmG8ust/r1Xo8nqGhIZfL5cdaTPBbRUVFRUXFunXrJvyTlRTuJBEERXKaZsfd5i//TcjqjcagYIoamNm8Xu+FCxeeffbZxsbG6XyedXV1v/jFL/wYh+Mfq9V64MCB8dT+FQqFb+/kiT2xkydP+jHs51O1tMHBwc+dHzlTAoDX633zzTdPnz49058+lUplMpmuM5bJ7XYfPHjwhRdeGOetOJWtCR9++OHvfve7gYGBKfh1V69eraqqGuduFb6FcfkumEoOh+ODDz6YjE+mVjq5jCZlbp7u7i8Hf+VvQzKytCq1QJkAM9Tg4OBvfvOb8+fPy9O+R+/o0aN/+tOfZlDZSpI0Pettvb29nzuoyWAwJCUlTfGaS/7p7+9/6aWXbuJCVRNCq9WazebrDGS6evXqL3/5y4aGhhn0R42Ojr700kvHjh2bsl3kxmlgYIAAMMVEUTxz5swETr8mAEwdpVIREqpcVGj4u/8V/uXHguMS1FotMQCYYTwez6FDh95+++0Z8VXtdDqfe+65tra2GRQAJnwe8ITo6ur63KqzUqmMjIyMjo6eEWV75syZffv2zegHUK/XX2day+jo6IsvvlhcXDx91vy58YT5v//3/54pj2pfX990mB17S5Fluaen5/z58wSAmUqlUgSHKDdsM33vn8M33GaKiVPTGwD456ZMZ+zv7/8//+f/zKDWr6amppdeeskzQxYkliSps7NzGp5Yd3f3tdrOw8PD4+PjZ0Tx9vT07NmzZ0a33er1+qCgoGv9v6WlpS+++OJMaUf/lPPnz7/00kszIrr09/cTAKbeyMgIASAAKi6K2Hj1XfcH3XanOSSMwgf8cVNG4Ozdu7eurm4GlZLD4Th48GBLS8uMOFuPxzM951X39vZea9+AsLCw2NjYGVG8oihWV1dfvnx55j71Op3uWj0Aoii+/PLLM7pi+s4778yIR5U5ADeF3W6/evXqhEdEVgG6KS8yIS6Rkgf8DtJT3QMwNDT09ttvT9R+ooIgmEymxMTEmJiYsLAwg8EgCIIsy06nc2hoqLOzs7W1dfy/y7dH79GjR9PT06f/NZ3OcwCuFQBCQ0PHEwD0er1ardbpdEqlUpZlt9stiqLb7Z6kTpvm5uby8vKFCxfO3ABgMpk+9/86f/78iRMnJu9Xq1QqjUbj2+xikn5FR0fHm2+++f3vf3+ar9bKHICbwreNg9VqDQ4OJgAAIANMneLi4suXL4//618QhPz8/G3bts2fPz8mJiYkJMRsNms0Gl8AEEXRZrMNDQ21tbWdPHny4MGDzc3N4+nu6O/vP3369K5du0JDQ6f5BfV4PBO+FcBEBYBrDQEKDQ2Ni4vzXbvP/r9KpTIsLCwuLi46OjosLCwsLCw8PDwsLMx30bVarVqt9tUsfZ/g8XgkSRJF0WKxdHZ2dnZ2tre3X7p0aaJGhw8MDFy5csXhcHzuGo5KpTItLW39+vVf+DldXV11dXX+DbYRBGHXrl2ZmZl+HBsdHf25B8qy/Oabb07gQjoGgyEjIyMnJ2fWrFlRUVFBQUEmk0mlUkmSZLfbLRbL4OBga2vrlStXqqurR0dHJ6RD0uFw7N+//+GHH56kPV8nisVi8W3aFQDbSswso6OjfX19BAAAmDper/fw4cN9fX3j+RCVSjV79uyvf/3rW7ZsSUhIMJvN19lMx+PxbN68+bHHHnvttdfeeuutgYEB/yoZkiRdvny5rq5uyZIl0zzO6XS6oKCgaVWxEARBpVIFBwdf60pptdrY2NjQ0FCbzaZUKoOCgubMmZORkZGampqcnJyamhoeHq7X63U6nUaj0Wq1n/xXpVJd5+pLkuR0Op1Op29p1PPnz7/11lunTp2y2WzjqWt6PJ6GhobOzs5Zs2Z97t+yffv2lStXfuHn7N69+6mnnvJ7R9idO3du377djwOVSuXnRpempqbi4uLxr3GkUqkiIyPvu+++rVu3pqWlBQcHm0ymT3LaJ2XoC2l2u91qtfb09Bw7duwPf/jD1atXr9VNdINkWW5sbDxx4sT9998/bR9StVodHx+v0+mmWwAQBMGXouXA3XHJarX29/d/7sNLAACASdHQ0HD+/PnxdHwbjcbbb7/9H/7hH3Jzc3U63Y3URaKioiIjI3NzcxcuXPjDH/6wpaXFv++2hoaGqqqqgoKC6dlip1arQ0JCcnJyHnvssZ07d06Tk/TV5tPS0m6//fb7778/LS3tWj+5cOHCv/u7v4uKipo/f/6cOXN8o3pUKpVKpVKr1f79OWq12mw2+8a7JyUlZWVlbd++/eOPP37mmWcqKirGU9Fsampqa2v73DqEIAihoaE30lMUGRk5no1gjUbjxLZiHjt2zO+n46//9ttuu+1//s//mZGRodfrr/UH+q6sbzZCdHR0WlrawoULv/zlL7/yyiuvvvpqW1vbeDoJfXFi586d022bLUEQgoKC0tPTd+7cee+9986aNWtqti6+/htSr9cbDAbff8PCwiIiIkRR7O3tHRwcvCnjlJRK5SenpNVqff/1xfjR0VGLxTLODmS73T7h29sRAADgei5dutTc3Oz34QaD4e67737qqaeuU4+81veuyWR67LHHnE7nD37wA//Wge7v7798+bLVar3OCio3q+qfmJi4cOFCX5Pw9BmkFBYWtmDBgh07dtx1110pKSnX/+GlS5cuXbp0Us9Ho9FERETcf//96enpf//3f3/mzBm/axLd3d29vb2B9Gw6nc7i4uLx/FGCIKSkpHznO9955JFHxnoT+nqukpOT/+mf/qmwsPCHP/xheXm53wlNFMWampra2tq8vLzpU8IhISHZ2dk7d+687777bvrOd0FBQbGxsTExMYmJiZmZmZmZmRkZGWlpaeHh4Z/cD5WVla+99tq77747BcsK+1oKoqOjIyMj4+PjMzIysrKyZs2alZCQEBMTo9frRVGsra09duzY7t27S0tLrVar37/L5XKN53ACwEyi0So0GsbYYepotUqtlpWpPs3r9dbV1fldw1AqlXl5ed/97nfHWvv/aw888MCRI0f+/Oc/+3GsLMvNzc39/f3TKgBERkauX79+165da9eujYyMnCZnZTQac3Nz77zzzrvvvnv27NnT7VYsLCz83ve+d/nyZb/3eB4eHu7v7/d4PJ+MaZnp2trampubx9O2Ghsb++1vf/vRRx8dT7+ERqPZtGmTIAg/+MEPLl686PdqLe3t7fX19dMkAJhMpvnz52/dunXXrl1z5869Wa3+vv6H2bNnZ2RkZGdn5+fn5+bmJiQkfO6e0Hq9vqCgICsrKzk5+Sc/+cnkxd2QkJA5c+ZkZWXl5ubm5OTMnTs3KSlJq9V+9sbw/cDatWt/+MMfvv/++353Tbjd7gnv1iAATFPJKZq1m42njjraW8SZtrEJZhilUkhJMW/alDRrVjCl8dk6U0NDg81m87tO+eCDDy5YsGA85xAUFPTII4/s3bvXv6WBWlpa+vv7x5NAJraSXVhYeN99923evPkL29enrsFFo5k7d+7OnTu3bt26cOHCGxmmdVNs2bJlyZIlH330kX+Hi6LY09PjdDqvtZzOjFNfX9/e3u734QaDYfv27Q8++OD4RyWpVKp169Z97Wtf+5d/+Re/E1pPT099fb0kSTd3h2m1Wp2Tk3PnnXdu3bp1/vz5er3+Zp3J7NmzV65cWVBQkJubm5GRERUVdSM5xGw233fffZcuXXrttdcm9ny0Wu3s2bOXLl26ePHi+fPnz507NyIi4kYyTE5Ozre+9a1Lly75vRSvx+MZ5zwTAsCMER6pWrvZlJGlO3vCfvyQ3emQKRNMBoNBtXZtwtatSenpwUYjL4RP6+3tHc8GVcnJyXffffc4h7arVKrs7Ox58+aVlZX5cXhbW9sErpEynkr2vHnzHnroofXr18+dO/dzG/BuitjY2Iceemjnzp05OTkhISHT+W7U6XQ7duzwOwAo/rKOe8AEgLa2tvGsHhsfH/+1r30tKipqomqH99577549ew4ePOhfJ4DD4WhtbR0dHf1kTMvUi4qKeuSRR3bt2pWdnT2xszXG+q7Yvn37mjVrMjIyYmJixtpnFRcXt3Llyg8++GCixs2r1eply5bdddddS5YsSU1NjYqKGmtIW7x48aJFi+rr6/2rx3u93gnf547v++lLrxdmZWhi4oJyF+gO7bNfqXa5XQE8xx1TShAUWq0qOzvszjvT5s0LCwnRzaxV3absSejr6xtPDWPjxo030kT0hSIiItasWeNfAOjv7x8aGrqJC3doNJqUlJS//du/3b59e0JCgtFonA63kG/87h133PHNb34zIyMjJCRk+q9sKAjCkiVLrrXw6I0YGRlxuVyB8RITRbGrq8u/uTG+Kt26desmdrxNRETEAw884Fuyyb9P6OjoGBgYmPoA4HscNm/e/M1vfnP+/Pk3ZU6O7xwWLVr0yCOPLFu2LDY21mQy+fdUqlSq1NTU+Pj4cQYAlUplNpuXLl362GOPFRYWRkdH+z1FW6fTLVy48L333vM7ALAR2C3HHKScv0g/K0NbUe48ccje2iw6HcQAjKvqbzCoU1ODtmxJWr48NjRUq1TOsNkmU/kA9Pf3jycALF++fELGzprNZt8wXD++AyRJ6urqcrlcU9+Vr1aro6KifOurzJo1a5q0+iuVypCQkIKCgm984xtr1qwJDg6eQYuaR0dHx8XF+d0rNTIyMlH72d10w8PDHR0dfteK9Hr9XXfdNeGDbbZs2RIdHd3U1DSeADBnzpypTJWhoaGLFy/++te/vn79+uusezupj2RYWFh+fv4TTzyxdu1ao9E4/usSHBw8nh4MlUoVExNTVFT01a9+tbCwMDg4ePwzZxISEqbV9BsCwAygVCqCQpSr1htzF+hOHbOXnnK2MTEAft5LQkqKefXq+A0bEhISZuowAN+qz1Pzu0ZHR4eGhvw7VqfTZWdnT8ipqtXqmJiY4OBg/xq0uru7nU7nVAYApVIZFRVVVFT0yCOPbNmy5SYOI/4Uo9FYUFCwa9eue+65Zzz7+N4sWq02JSXF7wBgs9kmfCTxzeLbGsnvw8PCwhYtWjThZxUcHFxQUOB3AOjv7/e7T8O/2yk/P//++++/7777YmJibtaljI2N/c53vvO1r31tAnsefNtu+P0Vk5mZ+fTTT2/ZsmUCx8uZTKabvoIqAWCmCo9Ubd8VNCdTd+qovfqSa6DPQ5ngxkVG6hcujNywIWHRoqgZ1+r/KVPTCeDxeCwWi99DJiIjIydwTLnJZAoLC/MvAAwPD09ltU+r1S5evPj+++/fuXNnQkLC9Glfj4+P/9KXvvToo4/m5ubO0K1MlUqlb4sA/0iS5A2U1iO73e73fmQKhSIjI2MyRqOpVKrc3Ny3337b71Rjt9unpgATEhJuu+22xx57zDeu7CZeyrS0tC1btkzsuKNx/kXLli3btWvXxP6Z0+2dQwCYYQRBMTdXm5CsrrrgKj7puFzlYn4wvpBer5o/P2Lt2vglS6LDwnRs4n6DXC7X8PCw32FjYjvTNRqN3+3oo6OjEz6B7FpCQ0MfeOCBhx56KD8/f/osp6PT6VasWPHQQw/t2LEjLCxsJn8FCOOpthIAPpGYmDgZzbFKpTIpKcnvw61Wq2/L50mtLOp0uqVLlz788MO33357VFSUwFfCLYkAMCMzQHCIcsly/awMTfVF16GPbO2tErMCcK3qQlKSafv2lMLC6NhYo0ajDJi/awp+iyiK42mNM5vNE1jDUKvVftenrVbr1ASA3Nzc73znO9u2bYuLi5s+d0tCQsKjjz567733ZmZm+j0qYJpQKpXjiVWiKAZMAHC5XON5PENDQyfjNeIbUj/Od47X6528weLR0dGPPvro/fffn5mZOX3G5oEAgBuvDQgxcerwSFX2fN3xg/YTR+w2i9fDmCD8hUolmM2a9esT7rgjNSbGoNOpAuZPk2V5aoYAeb1et9vt9+E6nW4CaxhKpdLvOoHT6fRM8ttBr9c//PDDTzzxREZGxvRp+FcqlUuWLPnxj3+cn59vNpsDo6VzPKnS6/UGzCIS41wZfZLWfRIEYZwD/1wu1+Rt1pacnPy73/1u0aJFQUFBNPwTADCDaTRCbLz6rgeC8gv1hz6yXal0j4x4vMSAW77qHxKizckJv/PO1OzssECq+k99DWM8AWD6EEVxsqt9wcHBy5cvn25j630DsleuXBlIdR3qbRMSACYvEI5nkoZCoXC73ZPXSxMZGbl69eppNRUVBACMKwZkzNUmJWsunneePe6orXHbrCwSdIsymTS5uWEbNiQsXRpjNmsC8m+cslWAZFn2BES32tQM/FAqldOtbioIwjQ8q5srYHoAvF7veB7PSborBEEYZ+O9JEmTeo2o/YMAEGgMRmHpCsOsOZqys87S086mejdLhd5SBEGYPTt4zZr4lStjExPN1HkmpKo0nm/ikZGRM2fOTNSU0ytXrlgsFr+rSlxNkGT40wACwHQ3POTxehSh4aqxZvWoGPWm202zM7XFJx3lxc6hAcYD3RLCw3UrVsSuXRufkxMeMDN9Z/oXZGNj47/8y79M1E5Ddru9vb2dWx3ULAEQAAJWa7N04pB9TqZ21XqDwTS2+pxaLcyZq42NV+fm6Y4fslddcLldvPQDlk6nysuLuO225Nzc8NBQ7a0w2mGmVGJsNltVVRW3KACAAIAb4nLKjVfdl845K8qct91lnj1Xq9cJwg0HAd9SoXmL9HPmamurXXt329paRJeTGBBoVf/UVPOdd6YtWRIdHKxVqRj0AwAACAAzmSwrHA65ptLV1CAuKtSvWm9MTlMbjMobb+FVqhRBwcpFSw2ZObpjB+2njzr6eiS3mxgw42m1qpgYw6pVcbt2pYWG3nIbe03ZJGBgnLxer2+5epfL5Xa7fQu8yLLs93KcFovFv92g//K1wvsfAAFghsQAu8176qi97rK7aKUhr0CXmq5VjeW6CYIiKFi5bac5e57u9FF75QVXX4/EjgEzlFIpREUZCgqitmxJzMwMVatZzwGYdkZHR9vb2zs6Onp6erq6ujo6OgYGBgYHB0dGRkRR9C0v69/MbI/H09XVRQkDIADcKjGgp0v68F1r9SXXirXGRUv1IaFjq/mpVIpZGZq4hKCcPF3ZGUdFmdNuoylohjEa1QUF0atWxS1cGBkaqqVAgGnF7XY3NDScO3euoqKiurq6rq6us7PT5XJNs28T3vwACAAziiTJV6+4e7ul2suuohWG7Pk6rW5sAyGMJuXCJfqUdE1mtvbEYUdDnZvvgpkiPT349tuTCwuj4+JMjH8BphWPx1NbW/unP/3pxIkTly9f7unpmZ47SFD7B0AAmKlGhr0lJ50NteL8hbp1W0zxieoxLRUqCIrIKNWKdca0OdriE47Tx+zDQ6wRPq2FhenWr49fvz4xLS2IbX2B6UYUxddff/1Xv/pVfX396OgolWwABABMCo9H7umSjn3suXjOtXyNYfUGY2i4ckyLwGg0QkqaJi5evWS54ch+26XzrpFhD5sFTStKpRASos3Pj9yxIyUjI0SvV9PwD0wrXq+3vb39xz/+8VtvvTU4OEjVHwABAJNOFOXebum9tywXypxb7jBn5mjDxrJxmCAodHohfY4mJT30SpVr//u2+lq31UIImBbMZs3cuaE7dqQWFUUz0xeYhjweT3V19ZNPPrlv3z5RFGfEORNRABAAAoQsK5oaxFefH1mwSFe4wpCZrTUHjXl+cM4CXWKK+tRRx7liZ2szOwbcTDqdKj09qKgoZuvW5MhIPQUCTM+adGNj449//OMDBw7MlNo/ABAAAo3d5i0+5Wi8KuYt0i1Zbpg9V6scY6txSKhq83ZT1jxd+VlH2Rlnb7fEiKApplQKMTGGlStjV6+OnzMnRKOh4R+YpoaHh3/3u9/t2bNnui3ycyPRhcsHgAAQOGSvoqdLOnLAU3fFvWy1cfkaQ1Dw2GqQarWQPlsTE6vKnqcrOeU4e9JBV8CU0etVK1fGrV+fMHduaEgIS3wC05fH4yktLf3d735ns9mo/QMgAODmE0W5qV7s67FUVjjXbDLOz9drdWPbNdVkVuYs0CWlarLm6Q58YGtudHvZNWwyqVRCcnLQl740a/HiyLAwnVLJVF9gWrNarS+++GJnZydFAYAAgOn0/WTxVl1wNdWL2fOd67caU9M1BuMYegMEQRESqixcYcjI0hafdJw+bu/t9rhdNB1NMK1WFRdnWL8+YcOGxKgoPZN9gRmhtLR03759M/HM6QEAQAAIcF6vwjLqLTnlqL7oWr3RWLTSEJ+o1mjH0LqsUikio1W33WVeWKg/fsh+oczZ3cnEgImhVArx8cbCwuitW5PT04MEFvgM1DesWj0dLq5azat+Al+t3jfeeMPpdFIUAAgAmL6sFu++96xXqtwr1xly83VR0WPeOCw+UX33l4Oy52lPHXVUX3JZRggB4xIcrM3Pj9y4MaGgIEqrZWOvgKVSqR599NHg4OCbfibJycmhoaFckQnR19d35swZL20hAAgAmOa8XkVDnbunU6q+6FpcZJi/UDfWpUI1GmHBQn1yquZcibP0tKO+ThTddCWPmUajzMgIXbs2fuXK2OhoAwUS8AHgBz/4QWpqKkURSMrLywcHBykHAAQAzAxWq/dcibOpXqy+pNuwzZSarhnb2ARBERahWr3RmJGlvVDuPHnE0dMlMaD0RgtPUMTEGDdvTly2LDYlxazT0fAPzEilpaV2u32cHxIUFJSZmZmenh4REaHT6ZQ33C0rimJJSUlpaal/v1eWZaYBACAA3HK8XkV/n+fMccfVK+5lqwxrNhqDQ1TKsdRFNRohOU0THauet1B37GP72RMOp4MvlOtX/QWjUbViRdwdd6QkJweZTDx0M+zyUQj4q1eot6amxuFw+H07RUdH33vvvXfffXdCQoLJZNJoNEql8sZvM7vd/vOf/9zvABBIlEqlSqUaz6WcjLOSZXmcnzym+wEgAGAMJFHuapc++JO1osy5botpXr4uJHRsL1K9QUhN197/qGZhgWH/B9bmetFm8xIDPvtlbzKpZ88OueeetPz8SL1ezVv9lqph0NoaeHp7e3t7e/2r4QmCkJKS8uSTT37pS18yGAxKpT+rfmm1WoOB0YMKhUKhUqnGM7vdZrNN0uNptVrHc7hOpxvPawcgAOALuN1y41WxvWUke75u5XpjVq52TBuHCYJCrxcWLNbNytCUnnGcPelobhCdDqo7/5fBoJ41K3jNmvh16+LDwnQUyAwNABqNxv+kLUmSJFGMgaSzs3N0dNTvit327du//OUv63S6cd6W4wmlgVN9UavH83iOjo5ORmnIsuz3HfLJfTKeSwwQAHCjMeBCubPpqnvpKsPSlYbUWRq1emzN1OZg5ZpNpowsXekZx7kSZ1uzeIs3egqCIjk5aOXK2FWr4mbNCmZjr5lLpVKNp4Yhy/L4B4tjWhkaGvJ7AdCQkJCtW7eOs/Y/zgAQSMbZGTIyMjJJAWBoaGg87xyDwUAPAAgAmCIjI95DH9karoqLlugXF+lj4sY2WEWpVCSmqKPjzBnZ2tNH7RVlLpv1Fl0jz2zWFBXFbNiQMH9+hF7PS3zGBwC9Xj+eT/ANM2BEbwC9KkdcLpd/x5pMpry8vHG3Lwjj7AEImE4Ag8EQFBTk9+FtbW2TMQ3A6/W2tbX5fbjJZDKZTLwxQADA1PF4FA217q526XKla9lqw8JCg8E4tneQVivkzNfFJ6hz89wnDtvratySdAv1BajVQlZW2LZtSQsXRkVFGXiBBwCdTjfOVfz7+/spxkBis9lEUfTv2KCgoKioqPGfAz0APkajMSQkxO/D6+rqHA6HyWSa6G9ST1VVld+HBwcHG41GLi4IAJhSsqywWb1VF11NDWJZsfP2O80p6Rq1ZgyNEYKgCI9UFa7QZ2RrL5Q5jxywd3dKkhjgMUCjUcbFGbdtS165MjYqyqDR8PUcMKFOHRISotFo/K7z1dfX0wMQSNxut8fj8eNAQRCCgoImZEtmAsAngSoyMtLvwwcHB8+fP79p06aJPSuLxTKeNZoiIiKmw9aBIADgVuT1Kiyj3opSZ/0V98p1xmVrDNGxap1uDDUYtVqIilat22LKL9Af+NBWfsYxNOTxBOJkSJVKiIjQr1wZd9ddadHRhrFOn8A056u0BQcHDwwM+PcJpaWlLAQUSCRJ8i8AKBSK8Y/+/+S29PvYQLobw8LC4uPjlUqlfyN5XC7Xu+++u27duglJZZ84cOBAb2+v34fHx8dHRETwoIEAgJsZA0aGvR+9Z7143rVynXHBQl1MvHpME5NUKkVktOq+R4LzFumOHbTXVruHhzwB8+0jCEJYmHbevPDNm5MKCqLUatrkAlNYWFhUVJTfAaC8vLy/vz8mJoaSDAzjqUD73Y/0qTcPPQCfBKq4uDiz2ezfqjuiKB45cqSysjI/P3+iTmlwcPD111/3e5q4QqFISEggAGBq8B7BF8SAtmbxz38cff2VkTPH7VbLmBtaVCpFzgLdg18N3vVA0IJFeoMhENrIDQb14sWRjzyS8cQTuUuXxlD7D2CRkZHjqb739va+//77FGPA8O3b5d+xdrt9QhrgCQCfSEpKGs/j2d7e/tJLL/kd7z+bKN5+++3y8nK/+4i0Wm1SUtJ4JjYABABMJJdTvnTe9ac/WN7+veVKtduPl1tIqGrlOuP9jwbfeV9QQtLM7ndKSjI/9NCcv/3bnNtuS4mM1DO6mwBwHTab7c0332xsbKQkA4NWq/VviUZZli0Wy8jIyM0NAAG2OV16enpiYqLfhzscjj179rzxxhvj3LpLoVB4PJ7Dhw+/8MILg4ODfn9IVFTUrFmztFotDxoIAJhGBgc8J4/YX3txZM/blr6eMYcApUoRn6het9X02DdD12wyjnWJoenAYFBv3Jj4//1/C3buTE1LC1KpqPsHvqioqKSkJL+X5fZ6vWVlZc8999xEtTLeCLvdfu7cufFURHAtZrPZ7/qZzWZraGgY5wlIkjSeIeYBJjU1NSkpaTyJqLOz8+c///nvfve78WQzt9t94MCBp59+uqqqajxLiyYkJMyePZvLiqnBHACM6btHbmsWe7qkC2XONZuMiwoNQSFje/fqdMKcudr4RPXipfrD++y1NW6H3TvNG6QEQTAa1bm5YXfckZqdHRYcrKXV/9ah1+uzs7OjoqK6u7v9+wSLxfLyyy+7XK4nnngiLS1tPDuLfZYsy5IkiaLocrl6enpKSkpOnz597ty5vr6+n/3sZ/fccw9XcGKFhYX5vfnUyMjI/v378/Ly/MiToijabLaSkpL/+q//OnHiBBfCx2QyFRQU7Nu3r6+vz+8nqLm5+cknnywuLv7e976XkZFx4/twybLsdDq7u7tfeeWVV199tbOz0+/BPwqFQqlUzpkzZ+7cuVxWEAAwHcmywuWUmxvF378wUnLaue0OU3qG1hykHNNSoeYg5fyF+jlztRVlzmMf21uaRId9moYAo1E9e3bw1q3Jy5fHms0aqv63oPnz5yclJfkdABQKxdDQ0HPPPVdcXPz444+vXLkyNjY2KCjIv2ZLWZZFUbRarRaLxWKxDAwMNDQ01NTUlJSUXLhwweVyeTwe38KjpaWlBIAJFx0d7fcy7Vardffu3WvWrCksLLzBlWc8Hs/Q0FBPT8/58+ffeOONU6dO2Wy28bQxB96aVGvXrv3tb3/rdwDwlcnw8PAbb7xx4MCBe+65Z9u2benp6cHBwSaTSa/Xq9VqlUqlVCplWfZ4PJIkud1uu90+Ojra3d199OjR119/vbGxcTxVf5+oqKhVq1YxAQAEAEz3GODxKGouuVqbxWWrDAXLDClpaoNxDBUaQVAYTcrla4xzc3XHPraXn3V0dUrTaqlQtVqZkGBauTL29ttTYmIMXPRbVkZGRkZGRkVFhST5f4NKklRWVnb+/PmCgoJ169ZlZ2dHRkaGhYWFhobq9XqdTqdSqXQ6ndFo9NUz3G63JEmSJLlcLpvN5qvu22y20dHRgYGBxsbG2traq1evtre3X2vJkYsXL7IFwYSLj4/3u4omy3JlZeXTTz/9xBNPLFmyJCoq6nNDoNfrtdlsfX19PT09jY2NZ8+ePX78eG1t7YQsIhR4MjMz8/PzKysrx1k+Xq+3v7//ueee++1vf5uenp6dnZ2amhoVFRUUFGQymbRarcfjsdvtFotlcHCwtbW1trb2ypUr/i1A9HlfiEJSUtLq1au5oCAAYGawjnoP77NdrnQXLNMXLDPEJ6rH2qwZEanacY85I0tbdtZx6bxrsP/mLxUqCIqICP2SJdGrV8fl5UVqtUyVuaUFBwevWrXq448/Hk8ro4/H4ykuLi4uLtbpdNHR0bGxsTExMUFBQQaDQaPR+HY2lWXZ7XY7nU7fwB673T48PNzf3z84ODg8PDw8PHwjFR1ZlpuamkZGRkJDQ7mCEygkJCQuLk6tVvuXBt1u96FDh5qbm1euXDlv3ryEhISgoCDf/gBut9tms/mudVdXV2tra0NDw9WrV202G8V+3ZYa9T333LNnz56J2nXb6XTW1NTU1NT8de1cpVJ5vd7x9L1cn06nW7Vq1axZs7igIABgxvB4FG0tYn+f50qVu3CFvmjVmCf4ajRCbp4uOU2TPd9VfNJRWeFyu25aCNDpVIsWRa5bl5CXFxEeziI/UCgUig0bNvz6178efwD4hMvlamtra2trm8RwbrXW1tYWFhZy+Sa0dUCYN2/enj17LBaLf5/g9Xrr6urq6urMZnNERISvdVmhUIii6HA4LBbL6Oioy+WapPMPsFWAfFauXLl48eL9+/dPXqGNp/fvRoSHhz/44IMTuyUZQADAVHDYvTWVrs52sbbGvX6LafZc7Zi6AgRBERKqLFiqnzVHe/Gcc//7tp6umzAeKC7OePfd6UVFMVFRelb3xydSUlI2bdpUW1s7eTWzCed0OqurqwkAE27hwoVGo9HvAPDXCW38q09CoVAYjcbHHnvs0KFDk11NnzwbN27Mzc3lUmIqUcXBRBoe8paccj7386HXXx5pbRLd7rE1NanUQlSMavVG4/f+OXzrHebwSJVaPRUt8Gq1MjJSf9ddaf/xH4W3354SF2ek9o//dmeqVF//+tfj4+NnUiZ3OCoqKrh2E27p0qVxcXGUw7Sybt26e++9d4ZukZaYmPid73xnYtcHAwgAmGoej9zf5/n4Q9sv/vfgvvdsne3SWIdNajRCfKL6S48EfesfwopW6SOiVJP3Vlcqhehow9q18f/6r4v+9m+zk5PNjPjH50pNTf36178+g/bocbvdV65cYQT5hDObzZs2bfJ7awhMhvDw8O9+97vZ2dkz8Xb6x3/8R1b/BAEAgaO/1/PnP46+9sJI6RnH0MCYl0hTqYTZmdqHHg+9/9HgBYv0esPEdwWYTOolS6K+/vWsb387Nzc3nFZ/XIdarb7//vtXrVo1U9bVkWV5YGCgqamJazfhtm/fHhQUNBPPPPAmAPgIgpCVlfXEE0/MrG46nU63c+fOHTt26PV6HisQABA4ZFlRfcn1hxdH3n3DUnXB5XSO+bvHYBAKlxu+/DfB2+8OSpulUU5Qo5tSKaSnB99//+xvfCNn3boEs5m+V3yxuLi4b33rW+np6TPlhIeHh+vr67lwE27evHkrVqygHKYVk8m0c+fOBx98cKasfKVUKouKip544onExEQuHwgACMAMMDLsPXXM8foro+++YWlvleSxL6QWE6fessP05a+GbNlujogabwiIiNDv3Jn6xBM5u3alJyWZuUa4QRqNZvXq1f/jf/yPmJgYAsAtXtd8+OGHg4ODZ+ALWQ7UTgCFQhETE/P444/fcccdfm/WNmUEQcjNzf3e976Xn58/Q6cuYKZjFSBMBUmU21vEvh7p8iXXmk3GFeuMWu3YRlJotUJGljYhSZ2bpzu83+bfUqE6nWrhwsgdO1KzskKDgzXskYSxCgkJ+cpXvtLf3//8888PDw9P87MdHR1taGgQRZH5hRP8xalWL1++fMeOHa+//noA16dnovT09H/913+VJOlPf/rTtF2zSxCEzMzMf//3f1+/fv0MmlYEAgDgJ5dTbm4U3/q95Xypc+NtpjlztQbjGNo+BEFhDlLmLNDNytBUXnDtfdfa1S7dYB1er1clJZnvvjt92bIYo1GtVFL1h58iIyP//u//XqPRvPjii729vdO5/ufxeNrb2zs6OlJTU7lwEys2Nvbxxx+vra09d+7c5O0PdS1KpVKlUnk8nrH+6oCPK4IgpKam/uIXv9Dr9W+//fb4V2udjPSYk5Pz7LPPLlu2jIX/QQDALcRh914676q/4l5YqF+x1pg+RzumjcOUSoXRpCxcbpibrTt+yN7ZIWo01ztcq1WlpwevXBm3fXtKRAQbe2ECREREPPXUU3FxcT//+c8bGxunc6Wqo6OjpaWFADAZVfCioqLvfOc7Tz75ZFNT01TeA2azOT8/PzIy8uzZs93d3VyLz2aAqKioZ555Jisr64UXXmhsbJw++wOEhoauXbv23/7t37KysuiCBgEAtyK7XT511FFfKxatNCws1KekaYQxDoMMCVNu22kaHPAYjNc7MiHB9Nhjc6Oi9BoN4ywxYVQq1de+9rXw8PDnn3++tLTUbrdPz/McHBycwA2M8d++PtXqHTt29PX1/eQnP+ns7JyCDKBUKrOysnbs2HH//fdLkvTEE08QAK4Tk77xjW9kZGT89re/PXHixODg4M0N6hqNZs6cObt27frqV7+alJRE7R8EANzSujulD/5sra1xL1ttmL9IFxY+tgm+ao0QHfsF93BoqDY0lEGWmJRv9LvvvjszM/OPf/zje++919TU5PF4ps/pxcbGLlmyZOnSpTk5OVysyatlPvzww4Ig/Md//EdXV9fk/SJBEHzbUe/cuXPNmjUGg8FqtaamppaUlEyru25aMRgMt912W3Z29kcfffTWW2+VlJTclK4AQRAiIiJ27ty5a9euZcuWzcS54yAAABNPkuTLVa7OdqnqomvFWkNWrk6ro2kEM+QFqlbn5eUlJSVt3Ljxgw8+eOutt25uc7uvqpGfn19UVLRkyZKMjIzExESDwcCVmjxhYWGPPfaYyWT60Y9+1NDQMOGfr1Kp0tLSbrvtto0bNy5evDg6OtrXeGw2m+fNm7d3796RkZEb/7TAXgXos5RK5axZsx5//PFly5YdPHjwz3/+88WLF0VRnLITCA4O3rRp0z333LN8+fL4+Hga/kEAAP76O0kxPOQpP+u8esWdM1+39Q5TXIJapeZFiRlAEITIyMgNGzYsWrToS1/60u7duz/88MOWlhZJkrxe76RWtgRB8E0GVSqVycnJRUVFy5cvX7BgQUxMTHh4uNlsHmttQ6lU+j7Tv5rWpP6Zfp/VFFS5zGbzAw88kJGR8etf/3r//v0Wi2Wc04IFQVCpVBqNJj8//9577127dm1iYmJISMinth8uLCyMioqyWq1TWSBKpVKr1fq3do3fd9c46XS6RYsWzZ07d+fOnWVlZXv27Dl9+vTQ0JAkSRPef+K7dmq1Oi4ubsuWLTt37szJyYmJiZnA+b6+p97vPDmpb6TpFv8+db9d64U8NalY+ItpUrYEAEwXkiQP9HlOH7fXVLrWbjItX2MICVOqiQH4DIPBMGfOnMjISL8/Qa/XT+z7VKlURkRELFu2bNGiRd/97ndLS0sPHTpUVlbW3d1ttVqdTqfL5Rr/d4xKpdJqtTqdTq/XG43GmJiYnJycBQsWFBQUzJo1y2AwaLVatVrt95+Wm5t7++23+1d5DQkJmaT9jOLj49evX9/f3+9fic2fP39q7snly5fPmzevpKTklVdeKS8v7+vrs9lsN16YgiDo9XqTyRQUFJScnLx69eotW7ZkZmaazeZr1bZ9mbOlpeXGzzM6OjoiImI8f2lhYeHPfvYzt9vt3+F5eXk3671hMpnmzp07e/bsnTt3Dg0NnT59et++fRUVFaOjo3a73eFwuFwu/8YIKZVKvV5vMBgMBkNERMTq1as3b96cl5cXGhqq1+snNvNERERs3LgxLS3Nv8MnaT0ApVKZmJi4ePFi/w6fO3fuhHdUhoWFrVu3Ljw83JfxZFl2uVy+zh9ZliVJcjqdvp/0er12u933fv6ki2wyNnsJDw9fsWLFmBL7X79gJ3yXa4E1jKensrPOP74y0t97iw7uVKkU6XO0azcZs+brwsNVShV3BGYel8t18eLFsrKyurq6lpaWgYEBi8Xiq2r4IoGvAdLr9fqqHb6GPUEQNBqN9i98dX2j0WgymSIiIpKTk1NSUmbPnp2dnZ2QkMAWQtOQ1+utqanZu3dvcXFxV1fX8PCwxWKx2WyiKEqSJMuySqXyNfAbDAbfxQ0ODo6MjJw9e/bixYsLCgpSUlJYIHJq2O32hoaGy5cv19TUNDY2+mKbw+FwOByiKHo8Hl9Xnt1ud7vdSqVSrVb7+kB0Op3v8pnN5oiIiIyMjKysrOzs7MzMTJPJRMHOUL6cIEmSRqPR6XSB/ccSAAgA05fJrJyXr1uy3JCzQGc00hWAmR0Genp6urq6BgYGBgcHh4eHR0dHXS6X2+32eDwOh0OhUKjVao1Go1QqfbUKk8lkNptDQkIi/yI4OJga/wzidDqbm5ubm5t7enp6e3ttNpvT6ZRl2Ve3MBqNYWFhkZGRERERCQkJ8fHx7Ak1HS7ZwMDAwMDA8PCwL7M5nU5RFAcHBy0Wi1qt1uv1Go3GaDQGBQVFRERERkZGRUWFh4cT2EAAAAFgQm9QQREVo164RF+0ypA2W8MEKgAAgHEis2Jak2VFb7d0eL+toc5dtNpQuNwQHEILKAAAAAEAAU10y/W17s526dxZ57otxpwFOqNJSW8AAAAAAQABS5YVNqu3ptLVWO/OWaDbssOcnKoxMDEAAACAAIDAjgEOu1x+1ll/RVyzybh4qT4uUa3VEgMAAABuFMOpMSMND3k+fNf6+xdGzh53WEa9FAgAAMANogcAM5UkynWX3V5ZkZSqCQomygIAANwQqk2Y2dwuWRRZyhYAAIAAAAAAAIAAAAAAABAAAAAAABAAAAAAABAAAAAAABAAAAAAABAAAAAAABAAAAAAABAAAAAAABAAAAAAABAAAAAAABAAAAAAABAAAAAAAAIARQAAAAAQAAAAAAAQAAAAAAAQAAAAAAAQAAAAAAAQAAAAAAAQAAAAAAAQAAAAAAAQAAAAAAAQAAAAAAAQAAAAAAAQAAAAAAACAAAAAAACAAAAAAACAAAAAAACAAAAAAACAAAAAAACAAAAAAACAAAAAAACAAAAAAACAAAAAAACAAAAAAACAAAAAEAAAAAAAEAAAAAAAEAAAAAAAEAAAAAAAEAAAAAAAEAAAAAAAEAAAAAAAEAAAAAAAEAAAAAAAEAAAAAAAEAAAAAAAAgAAAAAAAgAAAAAAAgAAAAAAAgAAAAAAAgAAAAAAAgAAAAAAAgAAAAAAAgAtxi1WqFWC5QDAAAACAC3hPhEdUGRPiZereQSAQAAYOKoKYLpKSZOfdtd5jlZ2uKTjnPFTpdLpkwAAABAAAhkJrMyv0CflKLJyNKeOGxvahBlL6UCAAAAAkBAi4xWrdpgnJurKz3tOHXUMdAneTyUCgAAAAgAgUujEeIT1dvvNi9eqj+831ZR5hoa8MiMCQIAAMDYMcN0ZhAEhVotJKVqHn485JHHQ+bn64NDuHYAAAAYM3oAZlpiUwr5S/SpszRlZxylZ5zNjaKb+cEAAAAgAAQwQVCER6rWbTFlZOsulDvPHHf0dEmMCAIAAAABIJBptELabE1svGpurvbYx/bSM05JJAQAAACAABDQDEbl3BxdQqImv0B/6CNbc4Podsv0BgAAAIAAELAEQREcqlyy3OBbKvT0cXt7i8TEAAAAABAAAplSqQgNU2663ZSzQHf8kO1iuaurg4kBAAAAIAAEuoQk9T1fDs7KdZ094bhc6RoeYvdgAAAAEAACmkYr5C3Wp6RpKi+4Th9z1Ne6RTd9AQAAACAABC7fUqHLVhvmzNVeOuc88KGtv8+jIAUAAAAQACiCAKbRCPGJ6qhoU06e7vBH9tIzDrvN6/FQMAAAAAQABHAM0ApJKZov/03w4iL9kf32ussuy6jXy9QAAAAAAgACOwbk5ulS0jXnS50lpxx1l90uJ0OCAAAACAAIaEHBylXrjXPmaktOOUrPODpaWSoUAACAAICAJgiK+ET1tjvNc+Zqz55wVJQ5LaOMBwIAACAAIKDpdEL2fF1isjpvse7wfntdjVsU6QsAAAAgACBwKZWK0HDVwkJDZrbuwjnn/j3W7i4POwYAAAAQABDIVCpFcKhy1XpjzgLdxx9aK0pd/b0eegMAAAAIAAhwEZGqux8Inr/Qfea4o+qCa2jAw/xgAAAAAgACmUYr5MzXJSZrcua7ys44LlW43C5CAAAAAAEAAS0kVLl0pSF9jmb2XOfxQ/audokyAQAAIAAgkCmVith49Yatpsxs7amj9rIzTsuolxFBAAAABAAEMp1emJWhTUzWFC43Ht5nu1zlIgYAAAAQABDIBEGhNwhZ87SzMjXnSpxHD9iaG0SHnRAAAABAAEBA02qFpSsMs+ZoTh5xVJQ5O1olSSIGAAAAEAAQuARBER2rvn2XOXuetrzEea7YOdjPUqEAAAAEAAQ0nU6Ym6tLSNbkzNedOGy/UOb0eCgVAAAAAgAClyAogkOUeYv1qemaeXm6g3tt3V0eDyOCAAAACAAIYEqlIjxStWajMTdPd/KIvfS0s7/XI4rEAAAAAAIAApdKLcTEqe+6P3jhEsOxg/aqC87+XiYGAAAAEAAQ0JRKRfocTXxS8MVy7ckj9roat8NBCAAAACAAIKDp9cKSZYakVM2FMmfJaUdLo8j8YAAAAAIAApmgVMQnqiOiTJk52vKzzlPHHMODhAAAAAACAAKaTiekz9HGJ6oXFur37bFVnne6XDITAwAAAKYDJUWAySAICoNROTtT+7Vvhz72zdCMbK3RpBQECgYAAOAmowcAkxwDDELRKkNGtvbMccf5Emdrs+h20RcAAABAAEBAi4hUbdtpypmvKznlKDvr6OthYgAAAAABAAFNpRLS52hi41Vz5mrPHLdXVricTroCAAAACAAIaEaTcmGhPjlNnZPnOn7Q3tIoer2UCgAAAAEAgUupVETHqletV+XO1xWfdpw8bB/o80oSvQEAAAAEAAQujUaIiVdv3xVUUGT46D3rpfOukSEPvQEAAACTjWVAcVPvP6UiPlH98OMhDzwWnFegDw5hqVAAAIDJRQ8Abj6tVihcbpidqT1f4iw/66yvc4tuRgQBAAAQABC4BEERGaVau9mYma0tL3aePGIf6GOpUAAAAAIAAppGI6Ska6JiVJnZ2iMH7BfKnXQFAAAAEAAQ4IwmZfZ8XUqapqZKf/gjW3Oj6HTIMkEAAACAAIBApVQqgkKUhcsNuQt0xaccJw/b25olN70BAAAABAAENpNZuX6LKWOu9uhBe2WFq7dLYqlQAAAAAgACXFKq5t6HgnPmu8rPOiorXCPDhAAAAAACAAKaXi/kF+jTZmmy57tOHnHUXXZ72DwYAACAAIAAplQqwiNVRSsNGVna8mLn/vetI0N0BQAAABAAENi3rEaIiVNvus2Uu0B3ZL+tv8+jZD9rAACAGyawvCJmLtEt9/Z4TGYhNExFaQAAABAAAAAAAPw3DJ4AAAAACAAAAAAACAAAAAAACAAAAAAACAAAAAAACAAAAAAACAAAAAAACAAAAAAACAAAAAAACAAAAAAACAAAAAAACAAAAAAAAQAAAAAAAQAAAAAAAQAAAAAAAQAAAAAAAQAAAAAAAQAAAAAAAQAAAAAAAQAAAAAAAQAAAAAAAQAAAAAAAQAAAAAgAAAAAAAgAAAAAAAgAAAAAAAgAAAAAAAgAAAAAAAgAAAAAAAgAAAAAAAgAAAAAAAgAAAAAAAgAAAAAAAgAAAAAAAEAAAAAAAEAAAAAAAEAAAAAAAEAAAAAAAEAAAAAAAEAAAAAAAEAAAAAAAEAAAAAAAEAAAAAAAEAAAAAAAEAAAAAIAAAAAAAIAAAAAAAIAAAAAAAIAAAAAAAIAAAAAAAIAAAAAAAIAAAAAAAIAAAAAAAIAAAAAAAIAAAAAAAIAAAAAAAIAAAAAAABAAAAAAABAAAAAAABAAAAAAABAAAAAAABAAAAAAABAAAAAAABAAAAAAABAAAAAAABAAAAAAABAAAAAAABAAAAAAAAIAAAAAAAIAAAAAAAIAAAAAAAIAAAAAAAIAAAAAgJvs/wcXfIRmWjuHtAAAAABJRU5ErkJggg==;imageBackground=none;imageBorder=#FFFFFF;" vertex="1" parent="1">
          <mxGeometry x="62" y="919" width="280" height="140" as="geometry" />
        </mxCell>
        <mxCell id="_DgsHCR7agp-GBdOqNit-47" value="" style="edgeStyle=segmentEdgeStyle;endArrow=classic;html=1;curved=0;rounded=1;endSize=8;startSize=8;strokeWidth=2;jumpStyle=none;fontFamily=Comic Sans MS;fontSize=16;exitX=0.5;exitY=0;exitDx=0;exitDy=0;" edge="1" parent="1" source="_DgsHCR7agp-GBdOqNit-46" target="_DgsHCR7agp-GBdOqNit-5">
          <mxGeometry width="50" height="50" relative="1" as="geometry">
            <mxPoint x="260" y="900" as="sourcePoint" />
            <mxPoint x="434" y="780" as="targetPoint" />
            <Array as="points">
              <mxPoint x="200" y="919" />
              <mxPoint x="200" y="780" />
            </Array>
          </mxGeometry>
        </mxCell>
        <mxCell id="_DgsHCR7agp-GBdOqNit-48" value="Создание&lt;br&gt;и конфигурирование&amp;nbsp;&lt;div&gt;ресурсов&lt;/div&gt;" style="edgeLabel;html=1;align=center;verticalAlign=middle;resizable=0;points=[];fontFamily=Comic Sans MS;fontSize=16;" vertex="1" connectable="0" parent="_DgsHCR7agp-GBdOqNit-47">
          <mxGeometry x="0.2394" relative="1" as="geometry">
            <mxPoint x="34" y="-32" as="offset" />
          </mxGeometry>
        </mxCell>
      </root>
    </mxGraphModel>
  </diagram>
</mxfile>
